<svg xmlns="http://www.w3.org/2000/svg" width="200" height="267" viewBox="0 0 200 267" version="1.1">
	<path d="M 57.383 8.949 C 51.509 10.351, 45.004 14.177, 41.466 18.311 C 37.637 22.784, 34.659 31.184, 35.171 36.065 C 35.469 38.911, 35.129 39.254, 29.887 41.384 C 26.806 42.636, 22.909 44.640, 21.228 45.837 C 16.936 48.893, 14 55.459, 14 62 C 14 74.823, 23.343 83, 37.993 83 L 43.734 83 48.243 89.750 C 50.723 93.463, 54.165 99.313, 55.891 102.750 C 57.617 106.188, 59.655 109, 60.420 109 C 61.510 109, 61.695 110.270, 61.277 114.882 C 60.979 118.173, 61.299 123.080, 62.006 126.024 C 63.331 131.548, 66.599 135.504, 77.500 144.782 L 82.500 149.038 66.500 148.769 C 51.976 148.525, 50.149 148.293, 46.693 146.250 C 44.599 145.012, 41.772 144, 40.411 144 C 39.051 144, 37.735 143.437, 37.488 142.750 C 36.795 140.822, 34.025 107.372, 33.906 99.500 C 33.716 86.908, 33.265 86.691, 27.006 96.178 C -0.665 138.120, 6.474 195.635, 43.988 233 C 51.502 240.484, 67.523 252.820, 68.474 251.854 C 68.665 251.659, 67.765 248.350, 66.475 244.500 C 57.451 217.586, 40 160.459, 40 157.834 C 40 157.375, 52.375 157, 67.500 157 L 95 157 94.968 150.750 L 94.937 144.500 90.536 141.830 C 88.115 140.362, 84.867 137.245, 83.317 134.904 C 80.696 130.943, 80.500 129.948, 80.500 120.574 C 80.500 109.159, 81.773 104.467, 86.254 99.363 C 90.284 94.774, 93.944 93, 99.385 93 C 107.876 93, 112.725 96.236, 116.623 104.500 C 118.626 108.748, 118.982 111.066, 118.990 119.912 C 118.999 129.160, 118.728 130.782, 116.570 134.412 C 115.234 136.660, 112.094 139.850, 109.592 141.500 L 105.044 144.500 105.022 150.750 L 105 157 131.833 157 C 146.592 157, 158.909 157.242, 159.205 157.538 C 160.203 158.536, 150.605 190.891, 136.865 232.845 C 133.560 242.935, 131.026 251.359, 131.232 251.566 C 132.110 252.444, 145.846 242.216, 153.272 235.155 C 171.306 218.007, 183.081 196.760, 187.579 173.250 C 188.361 169.166, 188.994 160.126, 188.987 153.162 C 188.965 132.262, 184.247 114.942, 174.069 98.404 C 166.346 85.854, 166.394 85.838, 165.599 101.245 C 164.846 115.849, 163.329 134.421, 162.413 140.250 C 161.926 143.355, 161.419 144, 159.469 144 C 158.174 144, 155.481 144.964, 153.484 146.142 C 150.262 148.043, 147.982 148.330, 133.177 148.699 C 119.346 149.044, 116.770 148.892, 118.080 147.808 C 118.950 147.088, 122.550 144.141, 126.080 141.259 C 129.611 138.376, 133.625 134.357, 135 132.329 C 137.294 128.944, 137.500 127.729, 137.499 117.570 C 137.497 107.948, 137.197 105.938, 135.205 102.205 C 130.531 93.444, 121.973 86.212, 113.521 83.878 C 111.556 83.336, 110.169 82.536, 110.437 82.101 C 110.706 81.667, 109.757 75.749, 108.328 68.950 C 106.312 59.356, 106.016 56.495, 107.007 56.164 C 109.744 55.252, 115.984 48.664, 117.942 44.621 C 120.355 39.635, 120.695 30.597, 118.653 25.718 C 116.878 21.477, 110.235 15.573, 105.381 13.920 C 99.226 11.825, 91.025 12.296, 86.173 15.023 C 83.878 16.313, 82 17.735, 82 18.184 C 82 19.378, 83.244 19.130, 85.385 17.509 C 90.608 13.555, 103.079 14.968, 109.474 20.239 C 113.999 23.969, 116 28.341, 116 34.500 C 116 40.136, 114.226 44.534, 110.022 49.323 C 106.385 53.464, 105 53.927, 105 51 C 105 49.900, 104.537 49, 103.972 49 C 103.302 49, 103.183 51.350, 103.630 55.750 C 104.816 67.413, 104.837 67.350, 99.036 69.206 C 95.345 70.386, 93.837 70.499, 93.153 69.646 C 91.937 68.130, 90 58.797, 90 54.451 C 90 52.537, 89.493 51, 88.861 51 C 87.847 51, 88.054 62.473, 89.214 70.478 C 89.433 71.996, 88.548 72.790, 85.404 73.894 C 83.151 74.685, 80.625 75.070, 79.791 74.750 C 78.956 74.430, 76.145 69.068, 73.544 62.834 C 68.259 50.168, 66.358 47.249, 67.467 53.500 C 68.062 56.853, 72.916 72.567, 74.643 76.730 C 74.937 77.439, 73.585 78.707, 71.447 79.727 C 67.741 81.494, 67.740 81.494, 66.120 79.006 C 62.214 73.007, 52.636 64.030, 51.429 65.237 C 51.179 65.488, 52.599 67.416, 54.585 69.521 C 58.947 74.146, 63 80.395, 63 82.495 C 63 83.339, 61.538 84.932, 59.750 86.035 C 56.017 88.339, 51.318 88.318, 51.833 86 C 52.017 85.175, 51.825 84.842, 51.408 85.259 C 50.990 85.677, 49.602 85.036, 48.324 83.835 C 45.858 81.518, 45.152 79.393, 47.250 80.602 C 47.938 80.998, 47.422 80.139, 46.105 78.692 C 44.787 77.245, 43.356 76.280, 42.924 76.547 C 42.492 76.814, 41.856 76.575, 41.510 76.016 C 40.294 74.048, 38.905 74.953, 40 77 C 40.907 78.694, 40.760 79, 39.046 79 C 35.522 79, 26.795 75.178, 23.827 72.334 C 15.669 64.519, 18.941 50.221, 30.428 43.489 C 35.151 40.722, 37 40.859, 37 43.977 C 37 46.417, 38.017 49, 38.978 49 C 39.398 49, 39.341 46.862, 38.851 44.250 C 37.057 34.689, 40.107 24.817, 46.686 18.891 C 58.315 8.418, 72.906 10.226, 81.418 23.196 C 85.454 29.344, 86.695 29.305, 83.564 23.127 C 80.345 16.773, 73.226 10.546, 67.549 9.117 C 62.648 7.883, 61.901 7.870, 57.383 8.949 M 95.484 72.614 C 84.638 76.769, 58.611 89.559, 56.966 91.541 C 56.030 92.669, 56.386 93.867, 58.688 97.343 L 61.590 101.723 68.045 97.754 C 75.755 93.014, 103.909 79, 105.724 79 C 106.426 79, 107 78.523, 107 77.941 C 107 77.359, 106.654 77.096, 106.232 77.357 C 105.809 77.618, 105.626 76.122, 105.825 74.033 C 106.025 71.944, 105.801 69.995, 105.328 69.703 C 104.855 69.411, 100.425 70.720, 95.484 72.614 M 43 77.378 C 43 77.585, 43.788 78.373, 44.750 79.128 C 46.336 80.371, 46.371 80.336, 45.128 78.750 C 43.821 77.084, 43 76.555, 43 77.378" stroke="none" fill="black" fill-rule="evenodd"/>
</svg>