<svg id="Layer_1" data-name="Layer 1" xmlns="http://www.w3.org/2000/svg" width="146.6" height="146.6" viewBox="0 0 146.6 146.6"><path d="M441.3,635.3a73.3,73.3,0,1,0,73.3,73.3A73.3,73.3,0,0,0,441.3,635.3Zm0,134.2a60.9,60.9,0,1,1,60.9-60.9A60.9,60.9,0,0,1,441.3,769.5Z" transform="translate(-368 -635.3)" style="fill:blue"/><path d="M418.6,710.2l-4.3-2.3a78.7,78.7,0,0,1,17.8-10.5c5.4-2.1,10-3.1,13.8-3.1a10.2,10.2,0,0,1,4.8.9,2.9,2.9,0,0,1,1.6,2.6c0,1.3-2.1,6.8-6.3,16.4-6.9,15.9-10.4,25.4-10.4,28.7a2.6,2.6,0,0,0,.7,1.6,2.4,2.4,0,0,0,1.5.6c2.1,0,7.4-2.8,16.1-8.3l3.8,2.5c-9,5.8-15.5,9.5-19.6,11.1a29.4,29.4,0,0,1-10.1,2.4,8.7,8.7,0,0,1-5.4-1.5,4.6,4.6,0,0,1-2-4.1c0-5.5,4.9-19.2,14.7-40.8a8.3,8.3,0,0,0,.6-2.8c0-.9-.5-1.3-1.7-1.3a11.9,11.9,0,0,0-4.5,1A124.9,124.9,0,0,0,418.6,710.2Zm38.5-44.3a8.7,8.7,0,0,1,5,1.3,4.2,4.2,0,0,1,1.9,3.6q0,2.9-3,5.1a10.7,10.7,0,0,1-6.7,2.3,8.8,8.8,0,0,1-4.9-1.4,4.4,4.4,0,0,1-1.9-3.7,6.1,6.1,0,0,1,2.8-5.1A11.2,11.2,0,0,1,457.1,665.9Z" transform="translate(-368 -635.3)" style="fill:blue"/></svg>