<?xml version="1.0" encoding="utf-8"?>
<!-- Generator: Adobe Illustrator 21.0.0, SVG Export Plug-In . SVG Version: 6.00 Build 0)  -->
<svg version="1.1" id="Layer_1" xmlns="http://www.w3.org/2000/svg" xmlns:xlink="http://www.w3.org/1999/xlink" x="0px" y="0px"
	 viewBox="0 0 512 512" style="enable-background:new 0 0 512 512;" xml:space="preserve">
<style type="text/css">
	.st0{fill:#7CB342;}
	.st1{fill:#0277BD;}
</style>
<g>
	<path class="st0" d="M256,12.2C121.9,12.2,12.2,121.9,12.2,256S121.9,499.8,256,499.8S499.8,390.1,499.8,256S390.1,12.2,256,12.2z"
		/>
	<path class="st1" d="M512,256c0,142.6-115.8,256-256,256S0,398.6,0,256S113.4,0,256,0S512,113.4,512,256z M253.6,374.3
		c0-4.9-2.4-7.3-7.3-9.8c-15.9-4.9-30.5-4.9-43.9-18.3c-2.4-4.9-2.4-9.8-4.9-15.8c-4.9-4.9-18.3-7.3-25.6-9.8c-9.8,0-20.7,0-32.9,0
		c-4.9,0-13.4,0-18.3,0c-7.3-2.4-13.4-13.4-18.3-20.7c0-2.4,0-7.3-4.9-7.3c-4.9-2.4-9.8,2.4-15.8,0c-2.4-2.4-2.4-4.9-2.4-7.3
		c0-7.3,4.9-15.8,9.8-20.7c7.3-4.9,15.9,2.4,23.2,2.4c2.4,0,2.4,0,4.9,2.4c7.3,2.4,9.8,12.2,9.8,20.7c0,2.4,0,4.9,0,4.9
		c0,2.4,2.4,2.4,4.9,2.4c2.4-13.4,2.4-25.6,4.9-39c0-15.9,15.8-30.5,28-35.4c4.9-2.4,7.3,2.4,13.4,0c15.8-4.9,53.6-20.7,46.3-41.4
		c-4.9-18.3-20.7-35.4-41.4-32.9c-4.9,2.4-7.3,4.9-12.2,7.3c-7.3,4.9-23.2,20.7-30.5,20.7c-13.4-2.4-13.4-20.7-9.8-28
		c2.4-9.8,25.6-43.9,41.4-37.8c2.4,2.4,7.3,7.3,9.8,9.8c4.9,2.4,13.4,2.4,20.7,2.4c2.4,0,4.9,0,7.3-2.4c2.4-2.4,2.4-2.4,2.4-4.9
		c0-7.3-7.3-15.8-12.2-20.7s-13.4-9.8-20.7-13.4c-25.6-7.3-67,2.4-86.6,20.7s-35.4,48.8-46.3,74.4c-4.9,15.8-9.8,35.4-12.2,53.6
		c-2.4,12.2-4.9,23.2,2.4,35.4c7.3,15.9,23.2,30.5,39,41.5c9.8,7.3,30.5,7.3,41.4,20.7c7.3,9.8,4.9,23.2,4.9,35.4
		c0,15.9,9.7,28,15.8,41.5c2.4,7.3,4.9,18.3,7.3,25.6c0,2.4,2.4,18.3,2.4,20.7c15.8,7.3,28,15.8,46.3,20.7
		c2.4,0,12.2-15.9,12.2-18.3c7.3-7.3,13.4-18.3,20.7-23.2c4.9-2.4,9.8-4.9,15.8-9.8c4.9-4.9,7.3-15.8,9.8-23.2
		C253.6,391.3,256,381.6,253.6,374.3z M258.4,137.8c2.4,0,4.9-2.4,9.8-4.9c7.3-4.9,15.8-13.4,23.2-18.3c7.3-4.9,15.9-13.4,20.7-18.3
		c7.3-4.9,13.4-15.8,15.8-23.2c2.4-4.9,9.8-15.8,7.3-23.2c-2.4-4.9-15.8-7.3-20.7-9.8c-20.7-4.9-37.8-7.3-58.5-7.3
		c-7.3,0-18.3,2.4-20.7,9.8c-2.4,13.4,7.3,9.8,18.3,13.4c0,0,2.4,20.7,2.4,23.2c2.4,12.2-4.9,20.7-4.9,32.9c0,7.3,0,20.7,4.9,25.6
		L258.4,137.8L258.4,137.8z M473,317c2.4-4.9,2.4-13.4,4.9-18.3c2.4-12.2,2.4-25.6,2.4-37.8c0-25.6-2.4-51.2-9.8-74.4
		c-4.9-7.3-7.3-15.8-9.8-23.2c-4.9-13.4-12.2-25.6-23.2-35.4c-9.8-13.4-23.2-48.8-46.3-37.8c-7.3,2.4-12.2,12.2-18.3,18.3
		c-4.9,7.3-9.8,15.9-15.9,23.2c-2.4,2.4-4.9,7.3-2.4,9.8c0,2.4,2.4,2.4,4.9,2.4c4.9,2.4,7.3,2.4,12.2,4.9c2.4,0,4.9,2.4,2.4,4.9
		c0,0,0,2.4-2.4,2.4c-12.2,13.4-25.6,23.2-37.8,35.4c-2.4,2.4-4.9,7.3-4.9,9.8s2.4,2.4,2.4,4.9c0,2.4-2.4,2.4-4.9,4.9
		c-4.9,2.4-9.8,4.9-13.4,7.3c-2.4,4.9,0,13.4-2.4,18.3c-2.4,13.4-9.8,23.2-15.8,35.4c-4.9,7.3-7.3,15.9-12.2,23.2
		c0,9.8-2.4,18.3,2.4,25.6c12.2,18.3,35.4,7.3,53.6,15.9c4.9,2.4,9.8,2.4,13.4,7.3c7.3,7.3,7.3,20.7,9.8,28
		c2.4,9.8,4.9,20.7,9.8,30.5c2.4,12.2,7.3,25.6,9.8,35.4c23.2-18.3,43.9-37.8,58.5-63.4C458.4,358.4,465.7,337.7,473,317z"/>
</g>
</svg>
